' Generated by UML Generator
' Encoded: fLdTKnit47_dhxX9Nyx5PlhCK4yS8CGTOZ9Wqfbs-Y3V2Lj1FdaasNoauM_lhgJJIRgpCUbBy6bNlrtjhlP3UQyqaNgzv0VgdbKh8iaoApXHQgIrPBErfkD2L3VicMQ_7InOIRE2oOBJWmF3bKtEhxFl1ras-0v0cXK_iXMLIbHJCbV7sGtL9pU0Kys7sU_uTIJkydTVpgzlhYRl-Xd-UjUBTWiv9nLxXe_T65VN5wF9-A_HT6oHu3j1ug9u5UNowjGZm6-BC81_3ZsCf8MOWqRqlD9CCwho3U5h2eW6hPznKitNPEvNUiVP9LFwv5H8Uabcb0yZFAOCq5DUYHBsV4Mm2Vpi19e9mIcf3dvuSmFdXHJhrQWY_EcPIcFy5_0RhVJ48DuGkS9VkBwfqPLJoeiR-fEs8FCkj7ws0mlDTiW5AJ_35yzdhFh8E9sGPNYMSRLQQ_YYP8coyVZsA-yPBlWLgtT8h498tmXMDbP0fIuaMIqYAmpck7JSKFqHM_nvojhhaWTBAr1UZpY_0U-fW31WwlPwBAaIV4DcdEQtaarYXtQvxxQwhyI3iSxvewQLWlWyVope2WFL7E9m9qkkl44ZQvm_heJKtWx7sHcz8skkpnY4hwPbonprXdmBhx57ARJb6oahr7aAVaKXVSSuGE6PNL3NGHEO8EIVKnDSfu8BsTxH2F3of-8BqGk8Ixq80ghsqJU55h9yHlcMT_lP7blFHB5UGjpllTl6srJy0I3EFgsmyiVntghDV5xEgRsyIgnbaLnSICfWfMZD-YxSdalAJOexpl3psdtrMdofX7wMul_CddwsGxuMBdetj1KxqJrkx02PfP1irGP48gdB4To0aPJaoQGWbz6ZYswqtufbb5DK-_AMU-IE-83pdZL8U8H4B-IuCPOouT-BF8R4gJ5Q5t6NXGovosvafhGaXROrEZiLbNQfsjemMCYh8F_sCrPsf0wJfklDluHXZj_wQGK0I9_2BrmfBFonsOWBUAN18v-8MdmcgvDQsDNi6qHIuvTQJg9JA13YAnBNnxH2hQJUJsBqd1EimpRKP16m9wHkf30rfOywZxCKmrotBlHQqh9DeaksWtnRgKvYOs_1IvifkosUsjTPp-_QUVPeS-1al2bUvA1OC5v2VO-kaGjBR8qg-X1GXddJ4jKuEm9h7ovGrAjG2_xx7rk0o_8KQRdXYAf2VIE11ShngKF8Ew4wkIcoT-JduAfxr5u8Pn86dAMcOc0bdY-PAiI6oiz2ixik8G4lvWI8kaYMiOkLj5VUXAlc7NheFdPxvHNO9AtKXxSH4m9ZWAmvDnrG6KJkuFL4qCec9gfUQbc9_g2Hu92KluIb5pUL57gD9QjexOS04OqxBkCyYjaNaDFa-jRSwppdP3QB467O6oRQkn71dZuECjz99gQgBTNXZJgdD6a-MjedqVkkrExtgS9ADHs7SSyPqIHqpw7VkEi-nsXrrdMrQDHjuRSxOC2gEoe_4CMAsWzXdNQQut9m2gprPZa-NtBnhQQurHcaFMf48qPNotpIz4Lr6p8CheiK8Xcf0YAMkgcmvF3wf8dvabNtj4mlcUSooVf5KRbXHTULZOSXmnryeXkbu9pAA7M0VJvwzT14WMWlkIwqxf1fhwC2KjiGSSBkdYC21lGMOPNQjxMDDh-rBzukEMXFsbNamnCcdIiv0Sldveab7QUhU3fEsiPHLPXHksCyYWeJ9fJrx8Rg3aOQ5FQ6r_gwnPs4i8zW4_IsWJs36JJTYJF07PRMWbxOgx4D26J0AEtWG8-ff5iGbLDoJomaVQ9ilkYmWUNQdi-DWAGy15MMkPdSJwvBMCeXH5HJj8DvqBFv6eL1NpUTARnBEjUKbAy-O4IytOyN4cZGws0yEkxelS95Bon_51APkkCtdEbfFKutdFri8SJzf2icQuKR20rjJf0vxhmmNrC2OwWDW8Is2DxnvdDCIPVcBsGp--C8t6T_vR0JaMyru-h8u1tvgj-qhsWW4FEsqxnuDSmbLdyolJXZSwRXKijT3tKspmZvj9T_4-ujprDbYV44l2Q7mj-M-u1bgsy7TNUjyZipKCGCNlDFUibZNxoawhXg55UInig84AiGdHZg3FJAUYgQtW8uppd5rnTW3cPOP5-GgkGKCOFAaEIUQ5DmPBjtQbxe6XauE4dJiBZUETY1-Xl-Q_40Pdu8Di6Nhz1MVY5u_HZgreOjuKXr4FLOiu_otXtcTGdCzp_yWH1l2_i1FeovUrlRgadGxXY-k_MrA-oQ_8rChlECA3g6tICjbgou5BP1mQ7JB-GTp_0574JJyTcM9qXFJijgadI_6TDzPSz9OhVxpV77ImBLVTka24ZuNnv7HyCWZRLVvGU3OMEMDbaC1i7szdFshq1l_D6cn-B31s2aUC5T10iPlK8E1lyEVS-Qac8u-rmN2GdVe3oIeVZNfMIvUGI92VwXmYw7Cqv34yuqyMfykde-xi29Xod34EQRPavgaPhR5gdGNZPMR9P_3RdZeX-xEQPrsJWWDTwFIcUyguiI-hyfJx4cSGceOw2BXgYXaTfKvuk398_5e0anEaLpPUCZlATLkLxo_m0
' URL: http://www.plantuml.com/plantuml/uml/fLdTKnit47_dhxX9Nyx5PlhCK4yS8CGTOZ9Wqfbs-Y3V2Lj1FdaasNoauM_lhgJJIRgpCUbBy6bNlrtjhlP3UQyqaNgzv0VgdbKh8iaoApXHQgIrPBErfkD2L3VicMQ_7InOIRE2oOBJWmF3bKtEhxFl1ras-0v0cXK_iXMLIbHJCbV7sGtL9pU0Kys7sU_uTIJkydTVpgzlhYRl-Xd-UjUBTWiv9nLxXe_T65VN5wF9-A_HT6oHu3j1ug9u5UNowjGZm6-BC81_3ZsCf8MOWqRqlD9CCwho3U5h2eW6hPznKitNPEvNUiVP9LFwv5H8Uabcb0yZFAOCq5DUYHBsV4Mm2Vpi19e9mIcf3dvuSmFdXHJhrQWY_EcPIcFy5_0RhVJ48DuGkS9VkBwfqPLJoeiR-fEs8FCkj7ws0mlDTiW5AJ_35yzdhFh8E9sGPNYMSRLQQ_YYP8coyVZsA-yPBlWLgtT8h498tmXMDbP0fIuaMIqYAmpck7JSKFqHM_nvojhhaWTBAr1UZpY_0U-fW31WwlPwBAaIV4DcdEQtaarYXtQvxxQwhyI3iSxvewQLWlWyVope2WFL7E9m9qkkl44ZQvm_heJKtWx7sHcz8skkpnY4hwPbonprXdmBhx57ARJb6oahr7aAVaKXVSSuGE6PNL3NGHEO8EIVKnDSfu8BsTxH2F3of-8BqGk8Ixq80ghsqJU55h9yHlcMT_lP7blFHB5UGjpllTl6srJy0I3EFgsmyiVntghDV5xEgRsyIgnbaLnSICfWfMZD-YxSdalAJOexpl3psdtrMdofX7wMul_CddwsGxuMBdetj1KxqJrkx02PfP1irGP48gdB4To0aPJaoQGWbz6ZYswqtufbb5DK-_AMU-IE-83pdZL8U8H4B-IuCPOouT-BF8R4gJ5Q5t6NXGovosvafhGaXROrEZiLbNQfsjemMCYh8F_sCrPsf0wJfklDluHXZj_wQGK0I9_2BrmfBFonsOWBUAN18v-8MdmcgvDQsDNi6qHIuvTQJg9JA13YAnBNnxH2hQJUJsBqd1EimpRKP16m9wHkf30rfOywZxCKmrotBlHQqh9DeaksWtnRgKvYOs_1IvifkosUsjTPp-_QUVPeS-1al2bUvA1OC5v2VO-kaGjBR8qg-X1GXddJ4jKuEm9h7ovGrAjG2_xx7rk0o_8KQRdXYAf2VIE11ShngKF8Ew4wkIcoT-JduAfxr5u8Pn86dAMcOc0bdY-PAiI6oiz2ixik8G4lvWI8kaYMiOkLj5VUXAlc7NheFdPxvHNO9AtKXxSH4m9ZWAmvDnrG6KJkuFL4qCec9gfUQbc9_g2Hu92KluIb5pUL57gD9QjexOS04OqxBkCyYjaNaDFa-jRSwppdP3QB467O6oRQkn71dZuECjz99gQgBTNXZJgdD6a-MjedqVkkrExtgS9ADHs7SSyPqIHqpw7VkEi-nsXrrdMrQDHjuRSxOC2gEoe_4CMAsWzXdNQQut9m2gprPZa-NtBnhQQurHcaFMf48qPNotpIz4Lr6p8CheiK8Xcf0YAMkgcmvF3wf8dvabNtj4mlcUSooVf5KRbXHTULZOSXmnryeXkbu9pAA7M0VJvwzT14WMWlkIwqxf1fhwC2KjiGSSBkdYC21lGMOPNQjxMDDh-rBzukEMXFsbNamnCcdIiv0Sldveab7QUhU3fEsiPHLPXHksCyYWeJ9fJrx8Rg3aOQ5FQ6r_gwnPs4i8zW4_IsWJs36JJTYJF07PRMWbxOgx4D26J0AEtWG8-ff5iGbLDoJomaVQ9ilkYmWUNQdi-DWAGy15MMkPdSJwvBMCeXH5HJj8DvqBFv6eL1NpUTARnBEjUKbAy-O4IytOyN4cZGws0yEkxelS95Bon_51APkkCtdEbfFKutdFri8SJzf2icQuKR20rjJf0vxhmmNrC2OwWDW8Is2DxnvdDCIPVcBsGp--C8t6T_vR0JaMyru-h8u1tvgj-qhsWW4FEsqxnuDSmbLdyolJXZSwRXKijT3tKspmZvj9T_4-ujprDbYV44l2Q7mj-M-u1bgsy7TNUjyZipKCGCNlDFUibZNxoawhXg55UInig84AiGdHZg3FJAUYgQtW8uppd5rnTW3cPOP5-GgkGKCOFAaEIUQ5DmPBjtQbxe6XauE4dJiBZUETY1-Xl-Q_40Pdu8Di6Nhz1MVY5u_HZgreOjuKXr4FLOiu_otXtcTGdCzp_yWH1l2_i1FeovUrlRgadGxXY-k_MrA-oQ_8rChlECA3g6tICjbgou5BP1mQ7JB-GTp_0574JJyTcM9qXFJijgadI_6TDzPSz9OhVxpV77ImBLVTka24ZuNnv7HyCWZRLVvGU3OMEMDbaC1i7szdFshq1l_D6cn-B31s2aUC5T10iPlK8E1lyEVS-Qac8u-rmN2GdVe3oIeVZNfMIvUGI92VwXmYw7Cqv34yuqyMfykde-xi29Xod34EQRPavgaPhR5gdGNZPMR9P_3RdZeX-xEQPrsJWWDTwFIcUyguiI-hyfJx4cSGceOw2BXgYXaTfKvuk398_5e0anEaLpPUCZlATLkLxo_m0
' Generated on: 2026-02-24T17:38:58.153977600

@startuml
skinparam classAttributeIconSize 0
hide circle

class NER {
  -{static} personTags: Set<String> = Set.of("PERSON", "PER")
  -{static} organizationTags: Set<String> = Set.of("ORGANIZATION", "ORG")
  -{static} locationTags: Set<String> = Set.of("LOCATION", "LOC")
  --
  +{static} recognizeEntities(value: String, language: String): List<CoreLabel>
  +{static} isEntity(node: ValueNode, language: String): boolean
}

class NodeGroupAnalyzer {
  ~parentNode: SarpNode
  ~valueNodes: List<ValueNode>
  --
  +NodeGroupAnalyzer(parentNode: SarpNode, valueNodes: List<ValueNode>)
  +loadModel(binFileName: String): InputStream
  -nodeStream(): Stream<ValueNode>
  +analyze(): void
}

class SarpGraphAnalyzer {
  -graph: SarpGraph
  --
  +SarpGraphAnalyzer(graph: SarpGraph)
  +analyze(): void
  +printAllStats(): void
  -isURIresolvable(UriNode: ValueNode): boolean
}

class UnknownFileExtensionException {
  +UnknownFileExtensionException(s: String)
}

class SarExporter {
  -g: DefaultDirectedGraph
  --
  +SarExporter(g: DefaultDirectedGraph)
  +dotExportAsString(): String
  +{static} filterNode(node: SarpNode): boolean
  +{static} getNodeColor(node: SarpNode): String
  +dotExportToPath(path: String): void
  +jsonExportToGraph(graph: SarpGraph, path: String): void
  +jsonExportToDocument(graph: SarpGraph, path: String): void
  -graphToJsonString(graph: SarpGraph): String
}

class DirectedEdge {
  ~source: SarpNode
  ~target: SarpNode
  --
  +DirectedEdge(relation: EdgeRelation)
  +DirectedEdge(source: SarpNode, target: SarpNode)
  +DirectedEdge(source: SarpNode, target: SarpNode, relation: EdgeRelation)
  +toExtensiveString(): String
}

class SarpEdge {
  ~description: EdgeRelation
  ~attributes: ArrayList<String>
  --
  +SarpEdge(description: EdgeRelation)
  +setAttribute(attribute: String): void
  +getDescription(): EdgeRelation
  +getSourceNode(): SarpNode
  +getTargetNode(): SarpNode
  +toExtensiveString(): String
  +toString(): String
}

abstract class ContentNode {
  ~ContentNode(name: String, id: String)
}

class FileNode {
  #path: String
  #type: NodeType
  #content: File
  #stats: HashMap<String, Object>
  --
  +FileNode(name: String, path: String, type: NodeType, file: File)
  +FileNode(name: String, path: String, type: NodeType)
  +getRelativePath(): URI
  +isText(): boolean
  +isStructured(): boolean
  +isSemiStructured(): boolean
  +isUnstructured(): boolean
}

class FolderNode {
  #path: String
  #content: File
  --
  +FolderNode(name: String, path: String, content: File)
}

class ListNode {
  -children: ArrayList<SarpNode> = new ArrayList<>()
  --
  +ListNode(name: String, id: String)
  +ListNode(name: String, id: String, children: SarpNode[])
  +addChild(child: SarpNode): void
  +addAllChildren(children: SarpNode[]): void
  +addAllChilderen(graph: SarpGraph): void
  +getChildren(): SarpNode[]
  +sameChildrenType(): boolean
  +discoverMotif(graph: SarpGraph): boolean
  +getTextChildren(): String[]
  +toExtensiveString(): String
}

class MapNode {
  +MapNode(name: String, id: String)
  +toExtensiveString(): String
}

abstract class SarpNode {
  -name: String = null
  -id: String
  -stats: HashMap<String, Object>
  -type: NodeType
  --
  ~SarpNode(name: String, absolutePath: String)
  -determineType(): NodeType
  +getId(): String
  +getName(): String
  +toExtensiveString(): String
  +toString(): String
  +getType(): String
  +addStat(name: String, value: Object): void
  +getStats(): HashMap<String,Object>
}

abstract class StructureNode {
  ~StructureNode(name: String, id: String)
}

class ValueNode {
  ~content: Object
  ~type: DataType
  --
  +ValueNode(name: String, id: String, content: Object)
  +getContentAString(): String
  +toExtensiveString(): String
  +toString(): String
  -inferBasicType(): void
  +getDataType(): DataType
  +setType(type: DataType): void
  +getContent(): Object
}

class SarpGraph {
  -graph: DefaultDirectedGraph<SarpNode, SarpEdge> = null
  -rootNode: SarpNode = null
  -fileToNode: Map<String, SarpNode> = new LinkedHashMap<String, SarpNode>()
  ~service: String = null
  --
  +SarpGraph()
  +SarpGraph(controller: String)
  +getFileToNode(): Map<String,SarpNode>
  +getRootNode(): SarpNode
  +setRootNode(rootNode: SarpNode): void
  +addNode(node: SarpNode): void
  +addContainsEdge(source: SarpNode, target: SarpNode): void
  +addDirectedEdge(source: SarpNode, target: SarpNode): void
  +addContainsEdge(file: File): void
  +getChildByNameOrNull(startNode: SarpNode, name: String): SarpNode
  +getAncNodes(node: SarpNode): SarpNode[]
  +getSubSet(node: SarpNode): Set<SarpNode>
  +getSubGraph(node: SarpNode): Graph<SarpNode,SarpEdge>
  -getNodeDepth(node: SarpNode, referenceGraph: Graph<SarpNode,SarpEdge>): int
  -getSubTreeDepth(node: SarpNode, subGraph: Graph<SarpNode,SarpEdge>): int
  -getNodeHeight(node: SarpNode): int
  +toString(): String
  +getGraphName(): String
}

class Main {
  +{static} main(args: String[]): void
  -{static} determineRootPath(): String
}

class ContentReader {
  -graph: SarpGraph
  --
  +ContentReader(graph: SarpGraph)
  +readAllFileContents(): void
  -addContentForFile(file: File): void
  +{static} fileToGraph(file: File, hookNode: SarpNode): SarpGraph
  +{static} textFileToNode(f: File): ValueNode
}

class CsvSarReader {
  -{static} logger: Logger = Logger.getLogger(SarFileUtils.class.getName())
  --
  +readCsv(file: File, hookNode: SarpNode): SarpGraph
  ~{static} startsWithDigit(str: String): boolean
}

class DirectoryReader {
  -graph: SarpGraph
  --
  +DirectoryReader(graph: SarpGraph)
  +addRootDir(rootDir: File): void
  +addFile(file: File): void
  -addChilds(folder: File): void
}

class HtmlSarReader {
  ~graph: SarpGraph = new SarpGraph()
  --
  +readHtml(file: File): SarpGraph
  -convertToValueNode(e: Element): ContentNode
  -handleHtmlNode(node: Node, reference: ContentNode): void
  -handleTable(e: Element, parent: MapNode): void
  -readTableRow(row: Element, rowNode: MapNode, cols: List<MapNode>): void
  -handleListElement(child: Node, reference: ContentNode): void
}

class JsonSarpReader {
  ~graph: SarpGraph = new SarpGraph()
  --
  +readJson(file: File, hookNode: SarpNode): SarpGraph
  -jsonToNode(parent: SarpNode, child: Object): SarpNode
}

class SarFileUtils {
  -{static} baseId: AtomicLong = new AtomicLong()
  --
  +{static} createID(): String
  +{static} createID(name: String): String
}

class jgraphViz {
  +{static} createGraphImage(graph: SarpGraph): void
}

NER ..> ValueNode
NodeGroupAnalyzer --> SarpNode
NodeGroupAnalyzer o-- ValueNode
SarpGraphAnalyzer *-- SarpGraph
SarpGraphAnalyzer ..> ValueNode
SarExporter ..> SarpNode
SarExporter ..> SarpGraph
DirectedEdge --|> SarpEdge
DirectedEdge --> SarpNode
SarpEdge ..> SarpNode
ContentNode --|> SarpNode
FileNode --|> SarpNode
FolderNode --|> SarpNode
ListNode --|> StructureNode
ListNode o-- SarpNode
ListNode ..> SarpGraph
MapNode --|> StructureNode
StructureNode --|> ContentNode
ValueNode --|> ContentNode
SarpGraph o-- SarpNode
SarpGraph o-- SarpEdge
SarpGraph *-- SarpNode
ContentReader *-- SarpGraph
ContentReader ..> SarpNode
ContentReader ..> ValueNode
CsvSarReader ..> SarpNode
CsvSarReader ..> SarpGraph
DirectoryReader *-- SarpGraph
HtmlSarReader --> SarpGraph
HtmlSarReader ..> ContentNode
HtmlSarReader ..> MapNode
JsonSarpReader --> SarpGraph
JsonSarpReader ..> SarpNode
jgraphViz ..> SarpGraph
@enduml